<?xml version="1.0" encoding="utf-8"?>
<!-- Generator: Adobe Illustrator 16.0.0, SVG Export Plug-In . SVG Version: 6.00 Build 0)  -->
<!DOCTYPE svg PUBLIC "-//W3C//DTD SVG 1.1//EN" "http://www.w3.org/Graphics/SVG/1.1/DTD/svg11.dtd">
<svg version="1.1" id="Layer_1" xmlns="http://www.w3.org/2000/svg" xmlns:xlink="http://www.w3.org/1999/xlink" x="0px" y="0px"
	 width="100px" height="100px" viewBox="0 0 100 100" enable-background="new 0 0 100 100" xml:space="preserve">
<g>
	<g>
		<polygon fill="#035BA9" points="36.705,50.953 11.094,25.417 11.094,70.162 17.868,70.162 17.868,43.433 36.705,60.975 		"/>
		<polygon fill="#035BA9" points="90.307,70.162 90.307,25.417 56.529,58.07 56.529,70.162 63.916,70.162 63.916,60.311 
			83.373,42.081 83.373,70.162 		"/>
		<polygon fill="#929497" points="69.841,43.67 64.779,48.54 53.176,37.494 44.786,44.986 44.786,70.162 37.852,70.162 
			37.852,42.415 53.182,28.036 		"/>
	</g>
	<g>
		<g>
			<rect x="53.006" y="22.474" fill="#A6A8AB" width="0.334" height="5.783"/>
		</g>
		<g>
			<rect x="10.926" y="19.632" fill="#A6A8AB" width="0.334" height="5.785"/>
		</g>
		<g>
			<rect x="53.006" y="37.501" fill="#A6A8AB" width="0.334" height="12.079"/>
		</g>
		<g>
			<rect x="6.007" y="25.249" fill="#A6A8AB" width="5.086" height="0.335"/>
		</g>
		<g>
			<rect x="6.007" y="69.992" fill="#A6A8AB" width="5.086" height="0.338"/>
		</g>
		<g>
			<rect x="10.926" y="70.162" fill="#A6A8AB" width="0.334" height="5.082"/>
		</g>
		<g>
			<rect x="17.429" y="70.162" fill="#A6A8AB" width="0.336" height="5.082"/>
		</g>
		<g>
			<rect x="37.685" y="70.162" fill="#A6A8AB" width="0.338" height="5.082"/>
		</g>
		<g>
			<rect x="44.652" y="70.162" fill="#A6A8AB" width="0.338" height="5.082"/>
		</g>
		<g>
			<rect x="56.363" y="70.162" fill="#A6A8AB" width="0.336" height="5.082"/>
		</g>
		<g>
			<rect x="63.752" y="70.162" fill="#A6A8AB" width="0.338" height="5.082"/>
		</g>
		<g>
			<rect x="83.189" y="70.162" fill="#A6A8AB" width="0.338" height="5.082"/>
		</g>
		<g>
			<rect x="90.141" y="19.632" fill="#A6A8AB" width="0.334" height="5.785"/>
		</g>
		<g>
			<rect x="90.307" y="25.249" fill="#A6A8AB" width="3.686" height="0.335"/>
		</g>
		<g>
			<rect x="90.307" y="69.992" fill="#A6A8AB" width="3.686" height="0.338"/>
		</g>
		<g>
			<rect x="90.141" y="70.162" fill="#A6A8AB" width="0.334" height="5.082"/>
		</g>
	</g>
</g>
</svg>
